<svg xmlns="http://www.w3.org/2000/svg" viewBox="0 0 800 600" width="800" height="600" style="fill: none;">
    <g fill="none" stroke="#ffffff" stroke-width="2">
        <rect x="200" y="100" width="400" height="300" rx="20" ry="20" fill="#2563eb" opacity="0.2"/>
        <rect x="250" y="150" width="300" height="200" rx="10" ry="10" fill="#ffffff" opacity="0.4"/>
        <circle cx="400" cy="300" r="80" fill="#8b5cf6" opacity="0.2"/>
        <path d="M350,250 Q400,200 450,250 T550,300" stroke="#ffffff" stroke-width="3"/>
        <path d="M300,350 Q350,300 400,350 T500,400" stroke="#ffffff" stroke-width="3"/>
        <path d="M250,400 Q300,350 350,400 T450,450" stroke="#ffffff" stroke-width="3"/>
    </g>

    <g transform="translate(320, 250)">
        <rect x="0" y="0" width="160" height="100" rx="5" ry="5" fill="#ffffff" opacity="0.9"/>
        <line x1="20" y1="20" x2="140" y2="20" stroke="#333" stroke-width="2"/>
        <line x1="20" y1="40" x2="140" y2="40" stroke="#333" stroke-width="2"/>
        <line x1="20" y1="60" x2="140" y2="60" stroke="#333" stroke-width="2"/>
        <line x1="20" y1="80" x2="80" y2="80" stroke="#333" stroke-width="2"/>
    </g>

    <g transform="translate(420, 180)">
        <circle cx="0" cy="0" r="30" fill="#ffffff" opacity="0.9"/>
        <path d="M-15,-5 L-5,5 L15,-15" stroke="#2563eb" stroke-width="3"/>
    </g>

    <g transform="translate(300, 350)">
        <polygon points="0,0 30,30 60,0 30,-30" fill="#ffffff" opacity="0.9"/>
        <circle cx="30" cy="0" r="10" fill="#2563eb"/>
    </g>

    <g transform="translate(500, 320)">
        <rect x="-20" y="-20" width="40" height="40" fill="#ffffff" opacity="0.9"/>
        <circle cx="0" cy="0" r="10" fill="#8b5cf6"/>
    </g>

    <g>
        <circle cx="250" cy="200" r="8" fill="#ffffff" opacity="0.8"/>
        <circle cx="550" cy="180" r="6" fill="#ffffff" opacity="0.8"/>
        <circle cx="500" cy="400" r="10" fill="#ffffff" opacity="0.8"/>
        <circle cx="300" cy="450" r="7" fill="#ffffff" opacity="0.8"/>
        <circle cx="200" cy="300" r="5" fill="#ffffff" opacity="0.8"/>
        <circle cx="600" cy="300" r="9" fill="#ffffff" opacity="0.8"/>
    </g>

    <g>
        <line x1="250" y1="200" x2="300" y2="250" stroke="#ffffff" stroke-width="1" opacity="0.5"/>
        <line x1="550" y1="180" x2="500" y2="220" stroke="#ffffff" stroke-width="1" opacity="0.5"/>
        <line x1="500" y1="400" x2="450" y2="350" stroke="#ffffff" stroke-width="1" opacity="0.5"/>
        <line x1="300" y1="450" x2="350" y2="400" stroke="#ffffff" stroke-width="1" opacity="0.5"/>
        <line x1="200" y1="300" x2="250" y2="300" stroke="#ffffff" stroke-width="1" opacity="0.5"/>
        <line x1="600" y1="300" x2="550" y2="300" stroke="#ffffff" stroke-width="1" opacity="0.5"/>
    </g>
</svg>
